<svg xmlns="http://www.w3.org/2000/svg">
    <defs>
        <symbol id="edit" viewBox="0 0 576 512">
            <path fill="currentColor" d="M417.8 315.5l20-20c3.8-3.8 10.2-1.1 10.2 4.2V464c0 26.5-21.5 48-48 48H48c-26.5 0-48-21.5-48-48V112c0-26.5 21.5-48 48-48h292.3c5.3 0 8 6.5 4.2 10.2l-20 20c-1.1 1.1-2.7 1.8-4.2 1.8H48c-8.8 0-16 7.2-16 16v352c0 8.8 7.2 16 16 16h352c8.8 0 16-7.2 16-16V319.7c0-1.6.6-3.1 1.8-4.2zm145.9-191.2L251.2 436.8l-99.9 11.1c-13.4 1.5-24.7-9.8-23.2-23.2l11.1-99.9L451.7 12.3c16.4-16.4 43-16.4 59.4 0l52.6 52.6c16.4 16.4 16.4 43 0 59.4zm-93.6 48.4L403.4 106 169.8 339.5l-8.3 75.1 75.1-8.3 233.5-233.6zm71-85.2l-52.6-52.6c-3.8-3.8-10.2-4-14.1 0L426 83.3l66.7 66.7 48.4-48.4c3.9-3.8 3.9-10.2 0-14.1z"></path>
        </symbol>

        <symbol id="delete" viewBox="0 0 448 512">
            <path fill="currentColor" d="M440 64H336l-33.6-44.8A48 48 0 0 0 264 0h-80a48 48 0 0 0-38.4 19.2L112 64H8a8 8 0 0 0-8 8v16a8 8 0 0 0 8 8h18.9l33.2 372.3a48 48 0 0 0 47.8 43.7h232.2a48 48 0 0 0 47.8-43.7L421.1 96H440a8 8 0 0 0 8-8V72a8 8 0 0 0-8-8zM171.2 38.4A16.1 16.1 0 0 1 184 32h80a16.1 16.1 0 0 1 12.8 6.4L296 64H152zm184.8 427a15.91 15.91 0 0 1-15.9 14.6H107.9A15.91 15.91 0 0 1 92 465.4L59 96h330z"></path>
        </symbol>

        <symbol id="redo" viewBox="0 0 512 512">
            <path fill="currentColor" d="M492 8h-10c-6.627 0-12 5.373-12 12v110.625C426.804 57.047 346.761 7.715 255.207 8.001 118.82 8.428 7.787 120.009 8 256.396 8.214 393.181 119.166 504 256 504c63.926 0 122.202-24.187 166.178-63.908 5.113-4.618 5.354-12.561.482-17.433l-7.069-7.069c-4.503-4.503-11.749-4.714-16.482-.454C361.218 449.238 311.065 470 256 470c-117.744 0-214-95.331-214-214 0-117.744 95.331-214 214-214 82.862 0 154.737 47.077 190.289 116H332c-6.627 0-12 5.373-12 12v10c0 6.627 5.373 12 12 12h160c6.627 0 12-5.373 12-12V20c0-6.627-5.373-12-12-12z"></path>
        </symbol>
    </defs>
</svg>