<svg xmlns="http://www.w3.org/2000/svg" viewBox="0 0 890.3 104.05"><path d="M580.36,0V57a21.41,21.41,0,0,1,6-10.08,22,22,0,0,1,15.5-6.24A11.34,11.34,0,1,1,590.55,52c0-.93.21-1.87.21-2.7a2.33,2.33,0,0,0-2.29-2.39,2.4,2.4,0,0,0-1.45.52c-4.16,3.43-6.66,10.29-6.66,15.6V97.14a6,6,0,0,0,6,6V104H547.7v-.83a6,6,0,0,0,6-6V6.86a6,6,0,0,0-6-6V0h32.52"/><path d="M601.89,22.67a11.36,11.36,0,0,1-11.34-11.33c0-.94.21-1.88.21-2.71a2.33,2.33,0,0,0-2.29-2.39,2.29,2.29,0,0,0-1.56.63l-.52-.63A22,22,0,0,1,601.89,0a11.46,11.46,0,0,1,11.44,11.34A11.45,11.45,0,0,1,601.89,22.67Z"/><path d="M631.84,60.63a13.21,13.21,0,0,1-13.32-13.31v-.1c.11-8.84,9.05-15.71,16.65-18.62l.31.73a2.86,2.86,0,0,0-1.67,2.6,2.68,2.68,0,0,0,2,2.7,13,13,0,0,1,9.36,12.69A13.33,13.33,0,0,1,631.84,60.63ZM651,104a52.69,52.69,0,0,1-5.82-.31c-11.75-1.14-26.63-4.89-26.63-19.45,0-14.35,14.57-18.2,26.11-19.45a35,35,0,0,0,5.82-1.14l.32.73c-3,.93-5.62,3.74-5.62,7V97.14a6,6,0,0,0,5.82,6Zm38.9,0H657.21V61c6.56-3.64,11.24-10.61,11.24-18.31a17.56,17.56,0,0,0-.31-3.22c-1.56-9-7.08-12.8-16.12-12.8v-.83c8.21,0,17.67,3.12,23.71,8.63,4.47,4.06,8,11,8.11,17V97.14a6,6,0,0,0,6,6Z"/><path d="M747.9,52.52a13.4,13.4,0,0,1-13.31-13.31c0-1.14.42-2.18.42-3.22a2.89,2.89,0,0,0-2.92-2.81,2.39,2.39,0,0,0-1.66.62,19.45,19.45,0,0,0-2.08,2.08A25.6,25.6,0,0,0,722.53,52V97.14a6,6,0,0,0,6,6V104H689.87v-.83a6,6,0,0,0,6-6V32.76a6,6,0,0,0-6-6V25.9h32.66V45.66a27,27,0,0,1,7.17-12.38,26,26,0,0,1,18.2-7.38,13.31,13.31,0,1,1,0,26.62Z"/><path d="M890,98.45c-9.11,6-19.3,6.5-29.49,4.62-12.33-2.28-20.66-13.12-20.68-25.68q0-24.47,0-48.94V26.29c-7.91-.37-13.93-4.76-20.11-8.71C812.21,12.77,804.1,10,795.11,11c-10.85,1.16-19.85,5.7-25.71,15.35a28.33,28.33,0,0,0-1.35,2.77,2.71,2.71,0,0,0,.51,3.31,2.75,2.75,0,0,0,3.47.4,13.34,13.34,0,1,1-3.12,21.09c-3-3.21-4-7.26-4.22-11.48-.66-12.35,6-23.31,17.53-28.74a36,36,0,0,1,32.64.23c3,1.45,5.72,3.32,8.57,5,2,1.16,3.91,2.36,5.9,3.47,15.55,8.7,34.84-2.67,36.21-20.32.06-.69.16-1.38.24-2.07l.71,0v25.4h12.39v.68H866.59c-.05,1-.1,1.56-.1,2.17q0,33.89,0,67.75c0,4.69,2.69,7.19,7.33,6.88a31.87,31.87,0,0,0,16.48-5.68"/><path d="M796.45,103.91a52.69,52.69,0,0,1-5.82-.31C778.88,102.46,764,98.71,764,84.15,764,69.8,778.56,66,790.11,64.7a35.24,35.24,0,0,0,5.82-1.14l.31.73c-3,.93-5.61,3.74-5.61,7V97.05a6,6,0,0,0,5.82,6Z"/><path d="M835.35,103.91H802.69v-43c6.55-3.64,11.23-10.61,11.23-18.31a16.73,16.73,0,0,0-.31-3.22c-1.56-8.95-7.07-12.8-16.12-12.8V25.7c8.22,0,17.68,3.12,23.72,8.63,4.47,4.06,8,11,8.11,17V97.05a6,6,0,0,0,6,6Z"/><path d="M145.6,104.05H106.91a30.18,30.18,0,0,1-6-.62l-.83-.11A32.39,32.39,0,0,1,81.74,92.19C72.9,81.48,74.25,71.5,74.25,58.5V32.81a6,6,0,0,0-6-6v-.83h32.66V96.56a6.6,6.6,0,0,0,6.45,6.66h5.61V32.81a6,6,0,0,0-6-6v-.83H145.6v.83a6,6,0,0,0-6,6V97.19a6,6,0,0,0,6,6Z"/><path d="M219.54,104.05H180.86a38.65,38.65,0,0,1-6-.52A32.75,32.75,0,0,1,148.2,71.39V58.5a32.75,32.75,0,0,1,26.62-32.14c4-.73,8-.52,12.07-.52V6.91a6,6,0,0,0-6-6V.05h32.65V97.19a6,6,0,0,0,6,6Zm-32.65-.83V26.67h-6c-3.44,0-6,3.43-6,6.66V96.56a6.53,6.53,0,0,0,6.45,6.66Z"/><path d="M373.67,104.05H335v-.83a6,6,0,0,0,6-6V44a6,6,0,0,0-6-6v-.84h32.66v60a6,6,0,0,0,6,6ZM354.32,26.67a13.31,13.31,0,1,1,13.32-13.31A13.4,13.4,0,0,1,354.32,26.67Z"/><path d="M486.35,104.05a55.51,55.51,0,0,1-6-.73v.11l-.83-.21c-15-3.54-25.69-16.23-25.69-31.93V58.5a32.65,32.65,0,0,1,26.52-32v70c0,3.22,2.7,6.65,6,6.76ZM518.9,63.28,486.35,63v-.83a6,6,0,0,0,6-5.93V33.43a6.46,6.46,0,0,0-6.44-6.66l.1-.83h.31a38.42,38.42,0,0,1,6,.52,32.54,32.54,0,0,1,26.52,32Zm-5.3,30.58v.31h-.21a30.37,30.37,0,0,1-9.67,7.28l-.31-.73a2.8,2.8,0,0,0,1.45-2.49,2.89,2.89,0,0,0-2.18-2.81h-.1a13,13,0,0,1-10.4-13,13.22,13.22,0,0,1,13.2-13.21c7,0,13.32,5.72,13.32,12.79C518.7,86.26,516.3,90.74,513.6,93.86Z"/><circle cx="238.89" cy="13.36" r="13.31"/><path d="M246.39,41.94h0l-.09,0-.08,0h0c-7,2.74-13.9,1.55-20.81.6a6.07,6.07,0,0,1,.17,1.42V97.19a6,6,0,0,1-6,6v.83h38.69v-.83a6,6,0,0,1-6-6V37.5A24.43,24.43,0,0,1,246.39,41.94Z"/><path d="M267,32.91c29.54,72.08,29.65,71.14,29.65,71.14L311,69.68l-.54-1L292.65,25.94H260.53l-.66,1A11.16,11.16,0,0,1,267,32.91Z"/><path d="M257.9,28.48c-1.29,1.88-2.55,3.78-3.88,5.63a23.74,23.74,0,0,1-2.63,3.06h.81v.33A60.37,60.37,0,0,0,259.87,27a6.49,6.49,0,0,0-.86-.16C258.64,27.38,258.28,27.94,257.9,28.48Z"/><path d="M329.15,25.12c-4.62-11.47-18.64-21.49-31.37-21.55-12-.06-26.65,7.41-34.22,16.77-1.44,1.77-2.7,3.69-4,5.6h.93l.15-.23C265.48,18.17,276.4,9.48,285,6.56c6.72-2.29,13.33-3,19.71-1.42a31.31,31.31,0,0,1,10.08,4.49c3.82,2.6,7.29,6.23,6.67,8a2.73,2.73,0,0,1-3,1.83,13.34,13.34,0,1,0,11.73,17.81C331.54,33.14,330.73,29.05,329.15,25.12Z"/><path d="M259,26.83a6.49,6.49,0,0,1,.86.16l.66-1h-.93C259.41,26.24,259.21,26.53,259,26.83Z"/><path d="M251.39,37.17a23,23,0,0,1-5.48,4,23.1,23.1,0,0,1-10.6,1.68c-2.28-.17-4.54-.44-6.81-.66-1.12-.11-2.24-.24-3.36-.37a7.81,7.81,0,0,1,.26.82c6.91,1,13.85,2.14,20.81-.6h0l.08,0,.09,0h0a24.43,24.43,0,0,0,5.81-4.44v-.33Z"/><path d="M32.66,104.05H0v-.83a6,6,0,0,0,6-6V6.91a6,6,0,0,0-6-6V.05H32.66Z"/><path d="M65.63,92.71a11.46,11.46,0,0,1-11.44,11.34,22,22,0,0,1-15.5-6.24l.52-.63a2.27,2.27,0,0,0,1.56.63,2.33,2.33,0,0,0,2.29-2.39c0-.84-.21-1.77-.21-2.71a11.39,11.39,0,0,1,22.78,0Z"/><path d="M412.1,104.05H373.41v-.83a6,6,0,0,0,6-6V32.81a6,6,0,0,0-6-6v-.83h32.65V97.19a6,6,0,0,0,6,6Zm38.58,0H418.13V33.43a6.53,6.53,0,0,0-6.45-6.66v-.83h.42a30,30,0,0,1,6,.52l.83.21c15,3,25.69,16.54,25.69,31.93V97.19a6,6,0,0,0,6,6Z"/></svg>